/* XPM */
static char *player51701432895[] = {
/* columns rows colors chars-per-pixel */
"32 32 13 1 ",
"  c #655F51",
". c #AEA798",
"X c #8E8A7A",
"o c black",
"O c #796D5C",
"+ c #E68383",
"@ c gray83",
"# c white",
"$ c #FF2B00",
"% c #EDC5C5",
"& c gray19",
"* c gray33",
"= c #279AC4",
/* pixels */
"                                ",
"  ....................XX   .... ",
"  ........ooooooooooooXX   .... ",
" .XXXXXXXXooooooooooooXX ..XXXXO",
" .XXXXXXoo++@@####$$$$oo.XXXXXXO",
" .XXXXXXoo++@@####$$$$oo.XXXXXXO",
" .XXXXoo@@%%####$$&&&&$$ooXXXXXO",
" .XXXXoo@@%%####$$&&&&$$ooXXXXXO",
" .XXoo++%%####$$&&**&&&&$$ooXXXO",
" .XXoo++%%####$$&&**&&&&$$ooXXXO",
" .XXoo@@@@%%##$$&&**&&&&$$ooXXXO",
" .XXoo@@@@%%##$$&&**&&&&$$ooXXXO",
" .XXoo@@@@####$$&&&&&&&&$$ooXXXO",
" .XXoo@@@@####$$&&&&&&&&$$ooXXXO",
" .XXoo@@%%####$$&&**&&&&$$ooXXXO",
" .XXoo@@%%####$$&&**&&&&$$ooXXXO",
" .XXoo++%%####$$&&&&&&&&$$ooXXXO",
" .XXoo++%%####$$&&&&&&&&$$ooXXXO",
" .XXXXoo@@@@####$$&&&&$$ooXXXXXO",
" .XXXXoo@@@@####$$&&&&$$ooXXXXXO",
" .XXXX  oo++@@####$$$$ooXXXXXXXO",
" .XXXO  oo++@@####$$$$ooXXXXXXXO",
" .XXO   .Xoooooo==ooooXXXXXXXXXO",
" .XXO  ...oooooo==ooooXXXXXXXXXO",
" .XXXO   .XXXXXXXXXXXXXXXXXXXXXO",
" .XXXOO  .XXXXXXXXXXXXXXXXXXXXXO",
" .XXXXO   .XXXXX==XXXXXXXXXXXXXO",
" .XXXXX   .XXXXX==XXXXXXXXXXXXXO",
" .XXXXX   ..XXXX====XXXXXXXXXXO ",
" OOOOOOOO  ..=======OOOOOOOOOOO ",
" OOOOOOOO  ..=====OOOOOOOOOOOOO ",
"              ====              "
};
