/* XPM */
static char *monster31700989920[] = {
/* columns rows colors chars-per-pixel */
"32 32 9 1 ",
"  c None",
". c #2F2F2E",
"X c #484848",
"o c #47DE4A",
"O c #EBC336",
"+ c #C97A87",
"@ c #DB8F9B",
"# c #D1D0D9",
"$ c #F1F0FD",
/* pixels */
"                                ",
"                                ",
"                                ",
"                                ",
"                                ",
"                                ",
"                                ",
"                                ",
"              ......            ",
"             .+#$$OO.           ",
"            .#@$$O..O.          ",
"           .+@$$O.X..O.         ",
"           .##@$O.X..O.         ",
"           .##$oO....O.         ",
"           .#@$$o.X..O.         ",
"           oo@$$o....oo         ",
"            ooo$oo..oo          ",
"             oo#ooOOoo          ",
"              ......            ",
"                                ",
"                                ",
"                                ",
"                                ",
"                                ",
"                                ",
"                                ",
"                                ",
"                                ",
"                                ",
"                                ",
"                                ",
"                                "
};
