/* XPM */
static char *coin51701432679[] = {
/* columns rows colors chars-per-pixel */
"32 32 121 2 ",
"   c #655F51",
".  c #AEA798",
"X  c #8E8A7A",
"o  c #796D5C",
"O  c #342C0C",
"+  c #352E0C",
"@  c #362E0C",
"#  c #332B0C",
"$  c #332C0B",
"%  c #524A0A",
"&  c #D9D003",
"*  c #E8DF02",
"=  c #E8DE02",
"-  c #D1C605",
";  c #422F0B",
":  c #4E460A",
">  c #D8CE02",
",  c #ECD603",
"<  c #FDAD00",
"1  c #FFA800",
"2  c #FFA900",
"3  c #FDA500",
"4  c #D28403",
"5  c #3B240B",
"6  c #DDC802",
"7  c #FDAE00",
"8  c #FFA700",
"9  c #FFA000",
"0  c #FFAB00",
"q  c #FFA100",
"w  c #FF9F00",
"e  c #F79A00",
"r  c #B67D24",
"t  c #40332D",
"y  c #342C0B",
"u  c #D9CF02",
"i  c #FDAF00",
"p  c #FF9E00",
"a  c #FFB400",
"s  c #FFD900",
"d  c #F9A200",
"f  c #FE9F04",
"g  c #FFB53C",
"h  c #F7EBD8",
"j  c #CCC1B1",
"k  c #261D20",
"l  c #FFDC00",
"z  c #F9A900",
"x  c #DA8902",
"c  c #FBB33D",
"v  c #FFF1DB",
"b  c #FAE8CA",
"n  c #BF8F42",
"m  c #251711",
"M  c #E8DD02",
"N  c #FFAA00",
"B  c #FFDD00",
"V  c #FFB800",
"C  c #F99B00",
"Z  c #E0A23D",
"A  c #FBEFDB",
"S  c #FFEAC8",
"D  c #FFC25A",
"F  c #D6C09F",
"G  c #281F1E",
"H  c #FFB300",
"J  c #FFE600",
"K  c #FEBE3C",
"L  c #FFEAC7",
"P  c #F9D9A3",
"I  c #BA8128",
"U  c #24150C",
"Y  c #FF9D00",
"T  c #FFAB03",
"R  c #FFF539",
"E  c #FFF9DD",
"W  c #FAE7C9",
"Q  c #FEC15B",
"!  c #FFDCA2",
"~  c #F9A825",
"^  c #B77103",
"/  c #24150B",
"(  c #FF9F04",
")  c #FFB63D",
"_  c #E2AF5B",
"`  c #FBD9A1",
"'  c #FFAD26",
"]  c #F99B02",
"[  c #FFAB04",
"{  c #FEC25B",
"}  c #FCDAA2",
"|  c #FF9E02",
" . c #FA9B01",
".. c #B87202",
"X. c #24140C",
"o. c #D0C504",
"O. c #FDBD3D",
"+. c #FFC25B",
"@. c #FEDCA2",
"#. c #FFA002",
"$. c #F19700",
"%. c #A46603",
"&. c #22130C",
"*. c #443D2B",
"=. c #D5CDBF",
"-. c #FDF4C3",
";. c #FFC35C",
":. c #F29700",
">. c #AA6A02",
",. c #331E0B",
"<. c #443C1E",
"1. c #CECD36",
"2. c #E1D09D",
"3. c #F5A625",
"4. c #FA9C02",
"5. c #FA9D01",
"6. c #28200F",
"7. c #402F20",
"8. c #AC6B05",
"9. c #25170C",
"0. c #23140C",
/* pixels */
"                                                                ",
"    . . . . . . . . . . . . . . . . . . . . X X       . . . .   ",
"    . . . . . . . . . . . . . . . . . . . . X X       . . . .   ",
"  . X X X X X X X X X X X X X X X X X X X X X X   . . X X X X o ",
"  . X X X X X X X X X X X X X X X X X X X X     . X X X X X X o ",
"  . X X X X X X X X X X X X X X X X X X X X     . X X X X X X o ",
"  . X X X X X X X X X X X X X X X X X X X X     . X X X X X X o ",
"  . X X X X X X X X X X X X X X X X X X X X   . X X X X X X X o ",
"  . X X X X X X X X X X X X O + @ # X X X X X X X X X X X X X o ",
"  . X X X X X X X X X X $ % & * = - ; X X X X X X X X X X X X o ",
"  . X X X X X X X X X : > , < 1 2 3 4 5 X X X X X X X X X X X o ",
"  . X X X X X X X X : 6 7 8 9 0 q w e r t X X X X X X X X X X o ",
"  . X X X X X X X y u i p 9 a s d f g h j k X X X X X X X X X o ",
"  . X X X X X X X + = 1 9 a l z x c v b n m X X X X X X X X X o ",
"  . X X X X X X X @ M 1 N B V C Z A S D F G X X X X X X X X X o ",
"  . X X X X X X X + M 2 w H J K A L D P I U X X X X X X X X X o ",
"  . X X X X X X X + M 2 Y T R E W Q ! ~ ^ / X X X X X X X X X o ",
"  . X X X X X X X + M 1 ( ) E W _ ` ' ] ^ / X X X X X X X X X o ",
"  . X X X X X o o + * [ g v L { } ' |  ...X.X X X X X X X X X o ",
"  . X X X X X     y o.O.v L +.@.' #.w $.%.&.X X X X X X X X X o ",
"  . X X X X     . X *.=.-.;.! ' | w :.>.,.X X X X X X X X X X o ",
"  . X X X o     X X X <.1.2.3.4.5.$.>.,.X X X X X X X X X X X o ",
"  . X X o       . X X X 6.7.8.....%.,.X X X X X X X X X X X X o ",
"  . X X o     . . . X X X X U 9.9.0.X X X X X X X X X X X X X o ",
"  . X X X o       . X X X X X X X X X X X X X X X X X X X X X o ",
"  . X X X o o     . X X X X X X X X X X X X X X X X X X X X X o ",
"  . X X X X o       . X X X X X X X X X X X X X X X X X X X X o ",
"  . X X X X X       . X X X X X X X X X X X X X X X X X X X X o ",
"  . X X X X X       . . X X X X X X X X X X X X X X X X X X o   ",
"  o o o o o o o o     . . o o o o o o o o o o o o o o o o o o   ",
"  o o o o o o o o     . . o o o o o o o o o o o o o o o o o o   ",
"                                                                "
};
