/* XPM */
static char *exit1701432966[] = {
/* columns rows colors chars-per-pixel */
"32 32 13 1 ",
"  c #655F51",
". c #AEA798",
"X c #8E8A7A",
"o c #4A3337",
"O c #945A50",
"+ c #613943",
"@ c #844344",
"# c #796D5C",
"$ c #B0866C",
"% c #5A5A70",
"& c #6B778E",
"* c #24222E",
"= c #352E3D",
/* pixels */
"                                ",
"  ....................XX   .... ",
"  ...ooooooooooooOOoooooooo.... ",
" .XXX+o+ooOOOO@@@ooo@+++ooOXXXX#",
" .XXXo$OOooooOO++OoooooooOoXXXX#",
" .XXXooooo++oooooOOOOOOOO+oXXXX#",
" .XXXo+ooooo++++ooooo+oooooXXXX#",
" .XXX+$%&&@@********@O&&%%+XXXX#",
" .XXX%&%+oo**********+++O&&XXXX#",
" .XXXooO+@************@Oo@$XXXX#",
" .XXX+o@+****===****=**+O@+XXXX#",
" .XXX@o@+***==*********+O@+XXXX#",
" .XXX@O@+***=**********oo$+XXXX#",
" .XXX@O@+**************+oOOXXXX#",
" .XXX+OO+**************+@OoXXXX#",
" .XXX+oOo**************+OOOXXXX#",
" .XXX+OOo**************+OO&XXXX#",
" .XXX&Oo+**************+o%+XXXX#",
" .XXX$%oO**************&o&+XXXX#",
" .XXX+&o%**************+%%+XXXX#",
" .XXXo@&+**************+&@&XXXX#",
" .XXX%&O&*=**********=*%o@+XXXX#",
" .XX#+oO+*=**********=*oO@+XXXX#",
" .XX#+OO+***********==*+OO+XXXX#",
" .XXXOO@+**************+Oo+XXXX#",
" .XXXOO$+**************+Oo+XXXX#",
" .XXX+o@+**************O@o+XXXX#",
" .XXXoo@+*******=******+@o+XXXX#",
" .XXX+OOo*******=******+@o+XXX# ",
" ####+Oo+*****=***=****+@o+#### ",
" ####+OoO****===*===***+$Oo#### ",
"     +@@O**==========**ooO@     "
};
