/* XPM */
static char *door11700996249[] = {
/* columns rows colors chars-per-pixel */
"32 32 10 1 ",
"  c None",
". c #24222E",
"X c #352E3D",
"o c #4A3337",
"O c #613943",
"+ c #5A5A70",
"@ c #844344",
"# c #945A50",
"$ c #B0866C",
"% c #6B778E",
/* pixels */
"                                ",
"                                ",
"      ooooooooooo##ooooooo      ",
"     OoOoo####@@@ooo@OOOoo#     ",
"     o$##oooo##OO#ooooooo#o     ",
"     oooooOOooooo########Oo     ",
"     oOoooooOOOOoooooOooooo     ",
"     O$+%%@@........@#%%++O     ",
"     +%+Ooo..........OOO#%%     ",
"     oo#O@............@#o@$     ",
"     Oo@O....XXX....X..O#@O     ",
"     @o@O...XX.........O#@O     ",
"     @#@O...X..........oo$O     ",
"     @#@O..............Oo##     ",
"     O##O..............O@#o     ",
"     Oo#o..............O###     ",
"     O##o..............O##%     ",
"     %#oO..............Oo+O     ",
"     $+o#..............%o%O     ",
"     O%o+..............O++O     ",
"     o@%O..............O%@%     ",
"     +%#%.X..........X.+o@O     ",
"     Oo#O.X..........X.o#@O     ",
"     O##O...........XX.O##O     ",
"     ##@O..............O#oO     ",
"     ##$O..............O#oO     ",
"     Oo@O..............#@oO     ",
"     oo@O.......X......O@oO     ",
"     O##o.......X......O@oO     ",
"     O#oO.....X...X....O@oO     ",
"     O#o#....XXX.XXX...O$#o     ",
"     O@@#..XXXXXXXXXX..oo#@     "
};
