/* XPM */
static char *floor_like_fr_1701432966[] = {
/* columns rows colors chars-per-pixel */
"32 32 4 1 ",
"  c #655F51",
". c #796D5C",
"X c #8E8A7A",
"o c #AEA798",
/* pixels */
"                                ",
"  ooooooooooooooooooooXX   oooo ",
"  ooooooooooooooooooooXX   oooo ",
" oXXXXXXXXXXXXXXXXXXXXXX ooXXXX.",
" oXXXXXXXXXXXXXXXXXXXX  oXXXXXX.",
" oXXXXXXXXXXXXXXXXXXXX  oXXXXXX.",
" oXXXXXXXXXXXXXXXXXXXX  oXXXXXX.",
" oXXXXXXXXXXXXXXXXXXXX oXXXXXXX.",
" oXXXXXXXXXXXXXXXXXXXXXXXXXXXXX.",
" oXXXXXXXXXXXXXXXXXXXXXXXXXXXXX.",
" oXXXXXXXXXXXXXXXXXXXXXXXXXXXXX.",
" oXXXXXXXXXXXXXXXXXXXXXXXXXXXXX.",
" oXXXXXXXXXXXXXXXXXXXXXXXXXXXXX.",
" oXXXXXXXXXXXXXXXXXXXXXXXXXXXXX.",
" oXXXXXXXXXXXXXXXXXXXXXXXXXXXXX.",
" oXXXXXXXXXXXXXXXXXXXXXXXXXXXXX.",
" oXXXXXXXXXXXXXXXXXXXXXXXXXXXXX.",
" oXXXXXXXXXXXXXXXXXXXXXXXXXXXXX.",
" oXXXXX..XXXXXXXXXXXXXXXXXXXXXX.",
" oXXXXX  oXXXXXXXXXXXXXXXXXXXXX.",
" oXXXX  oXXXXXXXXXXXXXXXXXXXXXX.",
" oXXX.  XXXXXXXXXXXXXXXXXXXXXXX.",
" oXX.   oXXXXXXXXXXXXXXXXXXXXXX.",
" oXX.  oooXXXXXXXXXXXXXXXXXXXXX.",
" oXXX.   oXXXXXXXXXXXXXXXXXXXXX.",
" oXXX..  oXXXXXXXXXXXXXXXXXXXXX.",
" oXXXX.   oXXXXXXXXXXXXXXXXXXXX.",
" oXXXXX   oXXXXXXXXXXXXXXXXXXXX.",
" oXXXXX   ooXXXXXXXXXXXXXXXXXX. ",
" ........  oo.................. ",
" ........  oo.................. ",
"                                "
};
