/* XPM */
static char *floor1700990534[] = {
/* columns rows colors chars-per-pixel */
"32 32 20 1 ",
"  c #556265",
". c #748181",
"X c #818F8E",
"o c #7E8B8A",
"O c #617072",
"+ c #3F484B",
"@ c #899795",
"# c #637173",
"$ c #6B7A7B",
"% c #606F71",
"& c #343B3E",
"* c #3B4447",
"= c #495355",
"- c #465053",
"; c #4F5A5C",
": c #5C696B",
"> c #6F7D7D",
", c #2D3437",
"< c #9FA9A6",
"1 c #929D9B",
/* pixels */
",,,&&&&&&&&&&*=-&,,&&&&&&*=-&,-;",
",,*++++++++++= ;*,*+++++-==-*+ :",
"&*;          %.#+*;    :$#=+;:>o",
"&+ ########OO>X.=+:$#OO>X.=* >X@",
"&+ ########OO$X.-->o$%%$X.-* >X@",
"&+ ##OOOOOO%%$X.;=#.>$$>.#=- $X@",
"&+ ##OOOOOO%%$Xo# = .XX. =;:%$o@",
"&+ ##OOOOOO%%$Xo%;+=#..#=-:#O$o@",
"&+ ##OOOOOO%%$X.=*; =--= :%O%$o@",
"&+ ##OOOOOO%%$X>+& :=+-= :%O%$o@",
"&+ ##OOOOOO%%$X.-* % :>#=- OO$o@",
"&+ OO%%%%%%%%$X.=+ #$>.#=- O%$o@",
"&+ OO%%%%%%%%$X.-* $o. =; :O%$o@",
"*=%>$$$$$$$$$.@o;-:.@o;=%>>$$.@1",
"= .XXXXXXXXXX@<@: >@<1#%.XXXX@<<",
"-;#..........o@o ;#oXoO:$....o@1",
"&*+========--;: +&+=;=-+-==--;:#",
",,*+++++++++*- ;&,*+++++++++*- :",
",*;          %.#+*;          :>o",
"&+ ########OO>X.=+ ########OO$X@",
"&+ ########OO$X.=+ ########OO$X@",
"&+ ##OOOOOO%%$X.=+ ##OOOOOO%%$o@",
"&+ ##OOOOOO%%$X.=+ ##OOOOOO%%$o@",
"&+ ##OOOOOO%%$X.=+ ##OOOOOO%%$o@",
"&+ ##OOOOOO%%$X.=+ ##OOOOOO%%$o@",
"&+ ##OOOOOO%%$X.=+ ##OOOOOO%%$o@",
"&+ ##OOOOOO%%$X.=+ ##OOOOOO%%$o@",
"&+ OO%%%%%%%%$X.-+ OO%%%%%%%%$o@",
"&+ OO%%%%%%%%$X.-* OO%%%%%%%%$o@",
"*-%$$$$$$$$$$.@o;-:$$$$$$$$$$.@1",
"= >XXoooooooo@<@: >XXoooooooo@1<",
";:o@@@@@@@@@@1<1#:o@@@@@@@@@@1<<"
};
