/* XPM */
static char *wall_like_fr_1701432967[] = {
/* columns rows colors chars-per-pixel */
"32 32 7 1 ",
"  c #201D36",
". c #402737",
"X c #354647",
"o c #625B59",
"O c #767676",
"+ c #958997",
"@ c #9BB3BC",
/* pixels */
"++O O@O++++++O.@@+++++++O.O@++++",
"OO+.@OOOOOoO++ @OOOOOOOO+.@OOOOO",
"OOO.o+OOOo+OOOX+OOOOOOOOO.+OOOOO",
"OOo.o+OOooOOOoX+OOOOOOOOo.+OOOOO",
"OOo o+Ooo+OOOo.+OOOOOOOOo +OOOOO",
"OOo.o+OO+OOOoo.+OOOOOOooo +OOOOO",
"oo..oo+OoooooO +o+OOoooOo OOOooo",
" . . XXX...       XXX....  XX.. ",
"+@++++ +@+++++OOOOOO O@++++++OOO",
"@OOOOO @++OOooooOOOO @+OOOOOOOOO",
"+OOOOo.+OOOOo++OOOOO +OOOOOOOOOo",
"+OOOOo.+OOOooOOOOOOoX+OOOOOOOOOo",
"OOOOOoXOOOO++OOOOOooX+OOOOOOOOOo",
"OOOoooXOOOOOOOOOoooOXOOOOOOOOooo",
"OOooOOXOOOOOoooooOOO.OOOOOOOooOO",
" XXX..   .. X....   .  X ..XXX .",
"O@+++OOOOO..O@@O+++++O@XO+@@@++O",
"@OOOOOOOOOOX@@OOOOOOOOOX++OOooOO",
"+OOOOOOOOOOX+OOOOOoOOOOX@OOOO+OO",
"OOOOOOOOOOO +OOOoooOOOO.oOoooOOO",
"OOOOOOOOOoO.oOOO+++OOOO.oO++OOOO",
"OOOOOOOOooO.oOOOOOOOOOO ooOOOOOO",
"+OOOooooo+O oooOooooOOO +ooooOOO",
".XXX  XXXX      .   ..X. ... XX.",
"@@oOO...O++OOO@O.O@++OooOO..+@@o",
"@Oo+O.++OOOOOOO@.@OOOOoOOOO.@+OO",
"+OOoO +OOOOOOOOOX++OOooOOOo +OOO",
"+OOOO OOOOOOOOOOXO+Oo++OOOo OOOO",
"+OOO@ OOOOOOOOOoXoOOo+OOOOo OOOO",
"OOOOO OOOOOOOOOo ooOOOOOOoo OOOO",
"oooOO OOOOoOoooX..ooOOOOoo. @@oo",
"  ..XXXX ....  X .X.    .XX  XX."
};
