/* XPM */
static char *wall1700990534[] = {
/* columns rows colors chars-per-pixel */
"32 32 10 1 ",
"  c gray6",
". c gray8",
"X c #090909",
"o c gray10",
"O c gray22",
"+ c #282828",
"@ c #212020",
"# c #2F2F2F",
"$ c #414141",
"% c #4B4B4B",
/* pixels */
"XXXXXXXXXXXXXXXXXXXXXXXXXXXXXXXX",
"          X           X         ",
"@@@@@@@+o  .@++++++@o  .o@@@@@++",
"#####O$O+..@O$$$$%%O+..@####OO$$",
"OOOOO$%$#o.+$%%%%%%%+..@OOOO$$%%",
"+#####OO@. o#OOO$$$O@  o+####OOO",
"oo.ooooo. X.oo@@@@@o.   .oooooo@",
".      .   ...         .      ..",
"@@o X o@@@@++@o X .oooo@@o X o@@",
"O#+. o+#OOO$$O+. .@++++##+o .+#O",
"OO+. o#OOOO$%$+. o++#+#OO#o .+OO",
"++o. .@++++###@ X.o@@@@++@.  o++",
"..  X ...o.oo.. X  ....... X  ..",
"........    .....oo.    ........",
"@+@+++#+@  o+####OO#o  o@++++###",
"OOOOO$$$#..@O%%%%%%$+..@#OOOO$%%",
"OOOOO$$$#..@O%%%%%%%+..@#OOOO$$%",
"@@+@++#+@  o+####OO#o  o@+++++##",
"........    ....ooo.    .. .....",
"..  X .ooooooo. X  ....... X .oo",
"++o  o+#OOOOO#@ X.o@@@@++@. .@#O",
"OO+. @O%%%%%%%#. o++++#OO#o oO$%",
"O#+. @O$$%$%%$#. .@++++##+o o#$%",
"@@o X.@+++###+o X .oooo@@o X.@++",
".     ........                ..",
"oooooooo. X oo@@@@@o.  ..ooooooo",
"+#+###O#@. o#OOOO$$O@  o+####OOO",
"OOOOO$%$#o.+$%%%%%%%+..@OOOO$$%%",
"####OO$O+..@O$$$$%%O+..@####OO$$",
"@@@@@@@@o  .@++++++@o  .o@@@@@++",
"         XX       .  XX         ",
"XXXXXXXXX XXXXXXXXXXXXXXXXXXXXXX"
};
