/* XPM */
static char *coin31701432679[] = {
/* columns rows colors chars-per-pixel */
"32 32 55 1 ",
"  c #655F51",
". c #AEA798",
"X c #8E8A7A",
"o c #796D5C",
"O c #342D0C",
"+ c #332C0C",
"@ c #352D0C",
"# c #D6D402",
"$ c #C9C103",
"% c #281F0D",
"& c #352E0C",
"* c #E8DE01",
"= c #BD8102",
"- c #24150D",
"; c #51460A",
": c #EBD501",
"> c #BE8002",
", c #3C240B",
"< c #D9CE02",
"1 c #FCB000",
"2 c #F09400",
"3 c #AC6B03",
"4 c #362F0C",
"5 c #F7A400",
"6 c #D78500",
"7 c #B47002",
"8 c #25160D",
"9 c #E8DD02",
"0 c #F8A400",
"q c #D18101",
"w c #B26E02",
"e c #D38300",
"r c #B36F02",
"t c #25150D",
"y c #D28200",
"u c #27170D",
"i c #E9DE01",
"p c #F2A000",
"a c #B06D03",
"s c #25140D",
"d c #342C0C",
"f c #CFC203",
"g c #D99000",
"h c #CA7D01",
"j c #9B6B04",
"k c #46350B",
"l c #E68F00",
"z c #BB7402",
"x c #331E0C",
"c c #331F0C",
"v c #E38C01",
"b c #B97202",
"n c #2D1B0C",
"m c #AB6A03",
"M c #9F6304",
/* pixels */
"                                ",
"  ....................XX   .... ",
"  ....................XX   .... ",
" .XXXXXXXXXXXXXXXXXXXXXX ..XXXXo",
" .XXXXXXXXXXXXXXXXXXXX  .XXXXXXo",
" .XXXXXXXXXXXXXXXXXXXX  .XXXXXXo",
" .XXXXXXXXXXXXXXXXXXXX  .XXXXXXo",
" .XXXXXXXXXXXXXXXXXXXX .XXXXXXXo",
" .XXXXXXXXXXXXXO+XXXXXXXXXXXXXXo",
" .XXXXXXXXXXXX@#$%XXXXXXXXXXXXXo",
" .XXXXXXXXXXXX&*=-XXXXXXXXXXXXXo",
" .XXXXXXXXXXXX;:>,XXXXXXXXXXXXXo",
" .XXXXXXXXXXX@<123-XXXXXXXXXXXXo",
" .XXXXXXXXXXX4*5678XXXXXXXXXXXXo",
" .XXXXXXXXXXX490qw8XXXXXXXXXXXXo",
" .XXXXXXXXXXX490er8XXXXXXXXXXXXo",
" .XXXXXXXXXXX490qwtXXXXXXXXXXXXo",
" .XXXXXXXXXXX490yruXXXXXXXXXXXXo",
" .XXXXXooXXXX4ipeasXXXXXXXXXXXXo",
" .XXXXX  .XXXdfghjsXXXXXXXXXXXXo",
" .XXXX  .XXXXXklzxXXXXXXXXXXXXXo",
" .XXXo  XXXXXXcvb-XXXXXXXXXXXXXo",
" .XXo   .XXXXXnmM-XXXXXXXXXXXXXo",
" .XXo  ...XXXXX--XXXXXXXXXXXXXXo",
" .XXXo   .XXXXXXXXXXXXXXXXXXXXXo",
" .XXXoo  .XXXXXXXXXXXXXXXXXXXXXo",
" .XXXXo   .XXXXXXXXXXXXXXXXXXXXo",
" .XXXXX   .XXXXXXXXXXXXXXXXXXXXo",
" .XXXXX   ..XXXXXXXXXXXXXXXXXXo ",
" oooooooo  ..oooooooooooooooooo ",
" oooooooo  ..oooooooooooooooooo ",
"                                "
};
