/* XPM */
static char *coin11701432678[] = {
/* columns rows colors chars-per-pixel */
"32 32 118 2 ",
"   c #655F51",
".  c #AEA798",
"X  c #8E8A7A",
"o  c #796D5C",
"O  c #352C0C",
"+  c #362E0D",
"@  c #342C0C",
"#  c #332C0B",
"$  c #524A0A",
"%  c #D9CE03",
"&  c #E8DF01",
"*  c #D1C603",
"=  c #473E2C",
"-  c #322A2D",
";  c #4F470A",
":  c #D8CE03",
">  c #ECD602",
",  c #FDAD00",
"<  c #FFA601",
"1  c #FFAA04",
"2  c #FCBD3D",
"3  c #EAE4D9",
"4  c #D0C7B7",
"5  c #443C3C",
"6  c #DCC503",
"7  c #FDAE01",
"8  c #FFA000",
"9  c #FFA901",
"0  c #FFB63C",
"q  c #FFF1DB",
"w  c #FFEAC8",
"e  c #FDC15C",
"r  c #D1C1A0",
"t  c #3E2F1C",
"y  c #FF9D00",
"u  c #FF9F00",
"i  c #FFB607",
"p  c #FFF13C",
"a  c #FFF9DC",
"s  c #F9E6C8",
"d  c #FFC25A",
"f  c #FFDCA2",
"g  c #F8A926",
"h  c #AC6B04",
"j  c #23140C",
"k  c #362E0C",
"l  c #FFA800",
"z  c #FFB708",
"x  c #FFF33C",
"c  c #FFFDDB",
"v  c #E1AF5E",
"b  c #FBDAA2",
"n  c #FFAC26",
"m  c #FA9B02",
"M  c #B77202",
"N  c #24140C",
"B  c #FFA700",
"V  c #FFFFDB",
"C  c #FFEAC7",
"Z  c #F5D6A2",
"A  c #FFA002",
"S  c #FA9C00",
"D  c #25150D",
"F  c #FFF4C6",
"G  c #FFC35C",
"H  c #F9D9A3",
"J  c #DB9525",
"K  c #FA9B00",
"L  c #352E0C",
"P  c #FFBF38",
"I  c #FFF0DB",
"U  c #FFFC5E",
"Y  c #FFE4A2",
"T  c #F6A725",
"R  c #D78601",
"E  c #E8E43D",
"W  c cornsilk",
"Q  c #FFEFA1",
"!  c #FFAE26",
"~  c #F79902",
"^  c #FF9E00",
"/  c #352D2D",
"(  c #EAE7D9",
")  c #FFE8A1",
"_  c #FFE625",
"`  c #F7A100",
"'  c #F29700",
"]  c #DC8900",
"[  c #FB9C00",
"{  c #D0C7B8",
"}  c #FFAD25",
"|  c #F8A200",
" . c #DB8801",
".. c #F79900",
"X. c #FEA000",
"o. c #F19700",
"O. c #A46503",
"+. c #433B3D",
"@. c #FCBA26",
"#. c #FFAC03",
"$. c #FEA100",
"%. c #AB6A03",
"&. c #311D0B",
"*. c #42391B",
"=. c #CDC603",
"-. c #E3D003",
";. c #F8A100",
":. c #F09500",
">. c #BD7602",
",. c #9D6304",
"<. c #281F0C",
"1. c #3E2A0A",
"2. c #B87302",
"3. c #34200B",
"4. c #23130C",
"5. c #24150D",
"6. c #25170D",
"7. c #23140D",
/* pixels */
"                                                                ",
"    . . . . . . . . . . . . . . . . . . . . X X       . . . .   ",
"    . . . . . . . . . . . . . . . . . . . . X X       . . . .   ",
"  . X X X X X X X X X X X X X X X X X X X X X X   . . X X X X o ",
"  . X X X X X X X X X X X X X X X X X X X X     . X X X X X X o ",
"  . X X X X X X X X X X X X X X X X X X X X     . X X X X X X o ",
"  . X X X X X X X X X X X X X X X X X X X X     . X X X X X X o ",
"  . X X X X X X X X X X X X X X X X X X X X   . X X X X X X X o ",
"  . X X X X X X X X X X X X O + + @ X X X X X X X X X X X X X o ",
"  . X X X X X X X X X X # $ % & & * = - X X X X X X X X X X X o ",
"  . X X X X X X X X X ; : > , < 1 2 3 4 5 X X X X X X X X X X o ",
"  . X X X X X X X X ; 6 7 < 8 9 0 q w e r t X X X X X X X X X o ",
"  . X X X X X X X @ : 7 y u i p a s d f g h j X X X X X X X X o ",
"  . X X X X X X X k & l u z x c s v b n m M N X X X X X X X X o ",
"  . X X X X X X X + & B 9 p V C d Z n A S M D X X X X X X X X o ",
"  . X X X X X X X + & 1 0 a F G H J K 8 S M D X X X X X X X X o ",
"  . X X X X X X X L & P I F U Y T R S 8 K M D X X X X X X X X o ",
"  . X X X X X X X k E W C G Q ! ~ R S ^ K M D X X X X X X X X o ",
"  . X X X X X o o / ( w d ) _ ` ' ] [ 8 K M N X X X X X X X X o ",
"  . X X X X X     - { e f } |  .] ..X.u o.O.j X X X X X X X X o ",
"  . X X X X     . X +.r @.#.$.S [ X.K ' %.&.X X X X X X X X X o ",
"  . X X X o     X X X *.=.-.;.S S :.>.,.&.X X X X X X X X X X o ",
"  . X X o       . X X X <.1.h 2.M O.3.4.X X X X X X X X X X X o ",
"  . X X o     . . . X X X X 5.6.6.7.X X X X X X X X X X X X X o ",
"  . X X X o       . X X X X X X X X X X X X X X X X X X X X X o ",
"  . X X X o o     . X X X X X X X X X X X X X X X X X X X X X o ",
"  . X X X X o       . X X X X X X X X X X X X X X X X X X X X o ",
"  . X X X X X       . X X X X X X X X X X X X X X X X X X X X o ",
"  . X X X X X       . . X X X X X X X X X X X X X X X X X X o   ",
"  o o o o o o o o     . . o o o o o o o o o o o o o o o o o o   ",
"  o o o o o o o o     . . o o o o o o o o o o o o o o o o o o   ",
"                                                                "
};
