/* XPM */
static char *coin41701432679[] = {
/* columns rows colors chars-per-pixel */
"32 32 99 2 ",
"   c #655F51",
".  c #AEA798",
"X  c #8E8A7A",
"o  c #796D5C",
"O  c #342D0B",
"+  c #362E0B",
"@  c #342C0B",
"#  c #4E4509",
"$  c #D9CF02",
"%  c #E8DE01",
"&  c #D0C503",
"*  c #41310A",
"=  c #332B0C",
"-  c #FDAF00",
";  c #FFA700",
":  c #F7A200",
">  c #AB6902",
",  c #23130C",
"<  c #51470A",
"1  c #EBD501",
"2  c #FFAB00",
"3  c #FFAA00",
"4  c #FA9E00",
"5  c #C17801",
"6  c #3C240B",
"7  c #342D0C",
"8  c #D9D002",
"9  c #FDAD00",
"0  c #FEEF00",
"q  c #FBE000",
"w  c #FFA400",
"e  c #F39700",
"r  c #AB6A03",
"t  c #21120B",
"y  c #352E0C",
"u  c #FFB800",
"i  c #F8EA00",
"p  c #DB9801",
"a  c #FB9D01",
"s  c #FA9C00",
"d  c #B87202",
"f  c #25160C",
"g  c #E8DB02",
"h  c #FFB300",
"j  c #FEE700",
"k  c #F7ED00",
"l  c #D78E01",
"z  c #FA9C01",
"x  c #B77202",
"c  c #25150B",
"v  c #E8DD02",
"b  c #FFA900",
"n  c #FFB400",
"m  c #F7E700",
"M  c #FFAD00",
"N  c #F7E600",
"B  c #D78F01",
"V  c #FB9F05",
"C  c #BC7E1B",
"Z  c #24150F",
"A  c #FFAE00",
"S  c #F8E600",
"D  c #FA9B00",
"F  c #FFB73D",
"G  c #DACFBB",
"H  c #292022",
"J  c #F3D800",
"K  c #D68C01",
"L  c #FAB33D",
"P  c #FFF2DB",
"I  c #D7CEC2",
"U  c #292020",
"Y  c #FFA800",
"T  c #FA9D00",
"R  c #DA8E01",
"E  c #DA9E3B",
"W  c #FBEFDB",
"Q  c #FDEACA",
"!  c #C29142",
"~  c #251710",
"^  c #332C0C",
"/  c #D0C602",
"(  c #FDB000",
")  c #FF9F01",
"_  c #FEECCA",
"`  c #F9BF5B",
"'  c #C3B5A2",
"]  c #271F22",
"[  c #433A09",
"{  c #D2BF07",
"}  c #FFBB3D",
"|  c #C9BBA5",
" . c #383034",
".. c #443C29",
"X. c #CDC9BF",
"o. c #292024",
"O. c #291F20",
"+. c #25170F",
"@. c #281F20",
/* pixels */
"                                                                ",
"    . . . . . . . . . . . . . . . . . . . . X X       . . . .   ",
"    . . . . . . . . . . . . . . . . . . . . X X       . . . .   ",
"  . X X X X X X X X X X X X X X X X X X X X X X   . . X X X X o ",
"  . X X X X X X X X X X X X X X X X X X X X     . X X X X X X o ",
"  . X X X X X X X X X X X X X X X X X X X X     . X X X X X X o ",
"  . X X X X X X X X X X X X X X X X X X X X     . X X X X X X o ",
"  . X X X X X X X X X X X X X X X X X X X X   . X X X X X X X o ",
"  . X X X X X X X X X X X X O + + @ X X X X X X X X X X X X X o ",
"  . X X X X X X X X X X X # $ % % & * X X X X X X X X X X X X o ",
"  . X X X X X X X X X X = $ - ; ; : > , X X X X X X X X X X X o ",
"  . X X X X X X X X X X < 1 ; 2 3 4 5 6 X X X X X X X X X X X o ",
"  . X X X X X X X X X 7 8 9 2 0 q w e r t X X X X X X X X X X o ",
"  . X X X X X X X X X y % 3 u i p a s d f X X X X X X X X X X o ",
"  . X X X X X X X X X + g h j k l z s x c X X X X X X X X X X o ",
"  . X X X X X X X X X + v b n m l z 4 x c X X X X X X X X X X o ",
"  . X X X X X X X X X + v ; M N B z V C Z X X X X X X X X X X o ",
"  . X X X X X X X X X + v ; A S B D F G H X X X X X X X X X X o ",
"  . X X X X X o o X X + v ; b J K L P I U X X X X X X X X X X o ",
"  . X X X X X     . X y % Y T R E W Q ! ~ X X X X X X X X X X o ",
"  . X X X X     . X X ^ / ( ) L W _ ` ' ] X X X X X X X X X X o ",
"  . X X X o     X X X X [ { } P Q ` |  .X X X X X X X X X X X o ",
"  . X X o       . X X X X ..X.I ! '  .X X X X X X X X X X X X o ",
"  . X X o     . . . X X X X o.O.+.@.X X X X X X X X X X X X X o ",
"  . X X X o       . X X X X X X X X X X X X X X X X X X X X X o ",
"  . X X X o o     . X X X X X X X X X X X X X X X X X X X X X o ",
"  . X X X X o       . X X X X X X X X X X X X X X X X X X X X o ",
"  . X X X X X       . X X X X X X X X X X X X X X X X X X X X o ",
"  . X X X X X       . . X X X X X X X X X X X X X X X X X X o   ",
"  o o o o o o o o     . . o o o o o o o o o o o o o o o o o o   ",
"  o o o o o o o o     . . o o o o o o o o o o o o o o o o o o   ",
"                                                                "
};
