/* XPM */
static char *coin21701432678[] = {
/* columns rows colors chars-per-pixel */
"32 32 95 2 ",
"   c #655F51",
".  c #AEA798",
"X  c #8E8A7A",
"o  c #796D5C",
"O  c #342B2C",
"+  c #352E29",
"@  c #362E13",
"#  c #332C2B",
"$  c #504848",
"%  c #D9D8D9",
"&  c #E8E1B5",
"*  c #E8E74B",
"=  c #D0C6A3",
"-  c #402E1F",
";  c #332B2E",
":  c #FDECC9",
">  c #FFC45E",
",  c #FFE5A3",
"<  c #F7AA26",
"1  c #A87004",
"2  c #23130B",
"3  c #524A4C",
"4  c #EBD7B3",
"5  c #FFC35C",
"6  c #FFE8A2",
"7  c #FFB825",
"8  c #FA9F02",
"9  c #C07701",
"0  c #3C240A",
"q  c #332C2A",
"w  c #D9D1A5",
"e  c #FDC35E",
"r  c #FFFA27",
"t  c #F9DF01",
"y  c orange",
"u  c #F49800",
"i  c #AB6A03",
"p  c #24140B",
"a  c #352E13",
"s  c #FFC625",
"d  c #F8EA01",
"f  c #DC9A00",
"g  c #FB9D00",
"h  c #FA9C00",
"j  c #B77202",
"k  c #25150C",
"l  c #362F28",
"z  c #E8DF9C",
"x  c #FFB926",
"c  c #FFE803",
"v  c #F7ED00",
"b  c #D78F00",
"n  c #F89B00",
"m  c #362F0E",
"M  c #E8DF13",
"N  c #FFA800",
"B  c #FFB301",
"V  c #F8E700",
"C  c #FA9D00",
"Z  c #362F0B",
"A  c #E8DD01",
"S  c #FFA700",
"D  c #FFAD01",
"F  c #F8E600",
"G  c #24150C",
"H  c #FFAE00",
"J  c #FFAA00",
"K  c #F1D400",
"L  c #D78E00",
"P  c #362F0A",
"I  c #E8DE02",
"U  c #DA8D00",
"Y  c #D98900",
"T  c #FB9C00",
"R  c #322B0B",
"E  c #D0C603",
"W  c #FBB501",
"Q  c #FF9F01",
"!  c #FF9C00",
"~  c #F29700",
"^  c #A46503",
"/  c #44340B",
"(  c #D2BF03",
")  c #F79E00",
"_  c #F89C01",
"`  c #F29500",
"'  c #A67104",
"]  c #311C0A",
"[  c #41310A",
"{  c #AC6C04",
"}  c #B87202",
"|  c #A46604",
" . c #321D0A",
".. c #24150B",
"X. c #25160C",
/* pixels */
"                                                                ",
"    . . . . . . . . . . . . . . . . . . . . X X       . . . .   ",
"    . . . . . . . . . . . . . . . . . . . . X X       . . . .   ",
"  . X X X X X X X X X X X X X X X X X X X X X X   . . X X X X o ",
"  . X X X X X X X X X X X X X X X X X X X X     . X X X X X X o ",
"  . X X X X X X X X X X X X X X X X X X X X     . X X X X X X o ",
"  . X X X X X X X X X X X X X X X X X X X X     . X X X X X X o ",
"  . X X X X X X X X X X X X X X X X X X X X   . X X X X X X X o ",
"  . X X X X X X X X X X X X O + @ # X X X X X X X X X X X X X o ",
"  . X X X X X X X X X X X $ % & * = - X X X X X X X X X X X X o ",
"  . X X X X X X X X X X ; % : > , < 1 2 X X X X X X X X X X X o ",
"  . X X X X X X X X X X 3 4 5 6 7 8 9 0 X X X X X X X X X X X o ",
"  . X X X X X X X X X q w e 6 r t y u i p X X X X X X X X X X o ",
"  . X X X X X X X X X a * , s d f g h j k X X X X X X X X X X o ",
"  . X X X X X X X X X l z x c v b n h j k X X X X X X X X X X o ",
"  . X X X X X X X X X m M N B V b h C j k X X X X X X X X X X o ",
"  . X X X X X X X X X Z A S D F b h h j G X X X X X X X X X X o ",
"  . X X X X X X X X X Z A S H F b h C j k X X X X X X X X X X o ",
"  . X X X X X o o X X Z A S J K L h C j k X X X X X X X X X X o ",
"  . X X X X X     . X P I N C U Y T C j k X X X X X X X X X X o ",
"  . X X X X     . X X R E W Q h T ! ~ ^ 2 X X X X X X X X X X o ",
"  . X X X o     X X X X / ( ) _ C ` ' ] X X X X X X X X X X X o ",
"  . X X o       . X X X X [ { } j |  .X X X X X X X X X X X X o ",
"  . X X o     . . . X X X X ..X.k p X X X X X X X X X X X X X o ",
"  . X X X o       . X X X X X X X X X X X X X X X X X X X X X o ",
"  . X X X o o     . X X X X X X X X X X X X X X X X X X X X X o ",
"  . X X X X o       . X X X X X X X X X X X X X X X X X X X X o ",
"  . X X X X X       . X X X X X X X X X X X X X X X X X X X X o ",
"  . X X X X X       . . X X X X X X X X X X X X X X X X X X o   ",
"  o o o o o o o o     . . o o o o o o o o o o o o o o o o o o   ",
"  o o o o o o o o     . . o o o o o o o o o o o o o o o o o o   ",
"                                                                "
};
