/* XPM */
static char *coin11700989756[] = {
/* columns rows colors chars-per-pixel */
"32 32 108 2 ",
"   c None",
".  c #090003",
"X  c #0B030F",
"o  c #0F060C",
"O  c #110606",
"+  c #11070E",
"@  c #11080D",
"#  c #11080E",
"$  c #120B0E",
"%  c #392209",
"&  c #3D250A",
"*  c #3C240B",
"=  c #3F260B",
"-  c #42280B",
";  c #453E06",
":  c #46400A",
">  c #484109",
",  c #4D470A",
"<  c #4F480C",
"1  c #684508",
"2  c #796F08",
"3  c #4E4737",
"4  c #766737",
"5  c #443F45",
"6  c #464042",
"7  c #4D464A",
"8  c #796E66",
"9  c #814F04",
"0  c #804F06",
"q  c #835006",
"w  c #9D6203",
"e  c #9F6303",
"r  c #A06303",
"t  c #B57002",
"y  c #BA7809",
"u  c #A09E05",
"i  c #A2A005",
"p  c #D68200",
"a  c #D78601",
"s  c #DE8A00",
"d  c #E18C00",
"f  c #EB9200",
"g  c #F29600",
"h  c #F69900",
"j  c #F69D00",
"k  c #FF9B00",
"l  c #FB9C00",
"z  c #FF9C00",
"x  c #FF9D00",
"c  c #FF9F00",
"v  c #FFA000",
"b  c #FFA400",
"n  c #F1A800",
"m  c #FFAF00",
"M  c #FFA20A",
"N  c #FFB402",
"B  c #F5BE01",
"V  c #FFB901",
"C  c #DC9B2E",
"Z  c #EFA62E",
"A  c #FFAD29",
"S  c #FFB529",
"D  c #FFB02E",
"F  c #FFB72E",
"G  c #F4BC2C",
"H  c #C6C603",
"J  c #D6C305",
"K  c #FFD800",
"L  c #FFCA14",
"P  c #FFF000",
"I  c #C5C22D",
"U  c #FFE929",
"Y  c #FFEA2E",
"T  c #FFEB2E",
"R  c #FFF329",
"E  c #E1AF5E",
"W  c #FFBF56",
"Q  c #F5BB5B",
"!  c #FFC45B",
"~  c #FFFC5B",
"^  c #FFC766",
"/  c #FFC971",
"(  c #FFFF6F",
")  c #A09EA4",
"_  c #D1C196",
"`  c #FFD490",
"'  c #F5D49C",
"]  c #FFD99A",
"[  c #FFEC95",
"{  c #FFFC90",
"}  c #D6C2A3",
"|  c #D6C3A7",
" . c #D6C4A7",
".. c #FFDCA2",
"X. c #FFDDA2",
"o. c #F6D9A9",
"O. c #FFDFA9",
"+. c #FFEEA2",
"@. c #FFE4A8",
"#. c #FFF1A9",
"$. c #C7C6CC",
"%. c #F5E9D6",
"&. c #FFEFD6",
"*. c #FFF1DA",
"=. c #FFF7DA",
"-. c #FFFFDA",
";. c #FFFCFE",
":. c white",
/* pixels */
"                        # + + + + + + #                         ",
"                        > < < < < < < >                         ",
"                # o o > i H H H H H H i > o o O                 ",
"                : , < 2 J P P P P P P J 4 7 7 6                 ",
"            X : u H H J B V V N V V V G _ $.$.) 6 .             ",
"            : 2 J P P K m z z k k M A / *.:.=.} 8 6             ",
"        X : u J B V V N b z k k k A ` *.:.*.^ Q | ) 5 .         ",
"        : 2 J K N z z z z b m N S / *.:.&.] W ! @._ 4 %         ",
"    # : u J B N b z z z k m K U [ *.:.&.^ W ..O.^ Z y q & #     ",
"    o < H P V k z z z b m L R ( -.:.%.' W ! O.] D h s r - o     ",
"    o < H P V z z k z N K R { -.:.%.E E ' O.^ D M h s e - o     ",
"    # < H P V z z b m L R ( -.;.&.' E E o.] D z z h s w - #     ",
"    @ < H P V z z m K R { -.:.&.^ W ' o.^ D M z z h s w - #     ",
"    # < H P V k k N U ( -.:.&.] W ! o.' D z z b b h s w - #     ",
"    # < H P V k k S [ -.:.&.^ W ..o.E C j z z b z h s w - #     ",
"    # < H P V M A / *.:.-.[ ! ! O.' C p g z b z b h s w - #     ",
"    # < H P N A ` *.:.-.( ~ +.O.^ Z a a g z b z b h s w - #     ",
"    @ , H P L / *.;.&.[ ~ ~ #.] A g a a g b z b z h s w - #     ",
"    # , H R [ *.:.&.^ ! +.#.^ D M g a a g z z b b h s w - #     ",
"    + < I ( -.;.&.] W ! #.[ F z z g a a g b z z z h s w - #     ",
"    # 3 _ -.:.&.^ W ..#.~ Y V z b g a a g b b z b h s w - #     ",
"    o 7 $.:.*.] W ! O.[ Y K n g g f s d h z z b z h s w - o     ",
"    o 7 $.=.^ W ..O.^ F V n d a a s f h l b z z b h d r - o     ",
"    O 6 ) | Q ! O.] A k k h d a a d h z b z z b l d t 0 & #     ",
"        6 8  .@.^ D M k z l h g g h l b b z b z f t 1 &         ",
"        . 5 ) _ G V V N b b b z b z b z h h h d t 0 % X         ",
"            5 4 J P P K N k z b z b z h d s f t 1 %             ",
"            . ; u H H J n h h h h h h d t w r 1 & X             ",
"                : , , 1 y d s d s s d t 1 & - &                 ",
"                + + @ % 0 r r w w w r 9 & # o +                 ",
"                        * - - - - - - *                         ",
"                        + $ $ $ $ $ $ +                         "
};
