/* XPM */
static char *coin41700989756[] = {
/* columns rows colors chars-per-pixel */
"32 32 98 2 ",
"   c None",
".  c #090008",
"X  c #090009",
"o  c #11070B",
"O  c #11060C",
"+  c #10070D",
"@  c #11080C",
"#  c #120A0E",
"$  c #3C240B",
"%  c #3F260B",
"&  c #412709",
"*  c #42280A",
"=  c #463F0A",
"-  c #442E16",
";  c #663F08",
":  c #48420B",
">  c #4B450B",
",  c #4E480B",
"<  c #4F480B",
"1  c #776908",
"2  c #4B4038",
"3  c #796F36",
"4  c #453F43",
"5  c #494346",
"6  c #4F484A",
"7  c #7A7069",
"8  c #814F06",
"9  c #835106",
"0  c #9D6001",
"q  c #9E6203",
"w  c #B67302",
"e  c #A7772C",
"r  c #A09E05",
"t  c #A19F06",
"y  c #A2A006",
"u  c #CC8100",
"i  c #D78402",
"p  c #DD8900",
"a  c #D39500",
"s  c #D79C00",
"d  c #D79F00",
"f  c #E18B00",
"g  c #E19E00",
"h  c #F29200",
"j  c #F39500",
"k  c #F69900",
"l  c #F79C00",
"z  c #FF9B00",
"x  c #FF9E00",
"c  c #D3BF02",
"v  c #EBA501",
"b  c #FFA101",
"n  c #F9A00D",
"m  c #E1B800",
"M  c #FFB000",
"N  c #FFB600",
"B  c #F5BE01",
"V  c #FFB900",
"C  c #FFBA00",
"Z  c #D79529",
"A  c #E6A12F",
"S  c #F2A529",
"D  c #FEB12A",
"F  c #C7C703",
"G  c #C5C404",
"H  c #D6C402",
"J  c #D8C502",
"K  c #D6C40F",
"L  c #E8C900",
"P  c #FFCB00",
"I  c #FDD700",
"U  c #F2E200",
"Y  c #F3E400",
"T  c #F5EC00",
"R  c #FFEB00",
"E  c #FFEE00",
"W  c #FFF200",
"Q  c #FEFE00",
"!  c #EFB85C",
"~  c #E4B86E",
"^  c #FFC256",
"/  c #FFC668",
"(  c #FFCC72",
")  c #BBA990",
"_  c #BBAD99",
"`  c #BEAE98",
"'  c #A0A0A5",
"]  c #D6C396",
"[  c #F2CD90",
"{  c #FED592",
"}  c #FDDB9F",
"|  c #D7C4A8",
" . c #C7C8CC",
".. c #F8ECD9",
"X. c #FFF2D9",
"o. c #FFF8DF",
"O. c #FFFFFE",
"+. c white",
/* pixels */
"                        @ o o o o o o @                         ",
"                        : , , , , < < :                         ",
"                    X : t F F G G F F t : X                     ",
"                    = 1 H W E E E E W c 1 %                     ",
"                + : t H B C C C C C C v w 8 $ @                 ",
"                + > F W C z z z z z x k f 0 % +                 ",
"                + > F W C z z z z z x l p 0 % +                 ",
"                : 1 c I M b M C C M b l f w ; $                 ",
"            + : t J B M b M I R E I M z k f w 8 % #             ",
"            + < F W C z z N R Q T I M x x k f q * X             ",
"            + , F E C z z N R T m g l b x l f q * @             ",
"            @ , G E C b M P W U s i j b x k p q * #             ",
"            @ , G R N M I W Q U s i j b b l p q * @             ",
"            @ , G R C M I W Q U s i j b x k p q * @             ",
"            @ , G E C b M P W U s i j b b l p q * @             ",
"            @ , G E C z z N R U d i j b b l p q * @             ",
"            @ , G E C z z N R U d i j b b l p 0 & +             ",
"            @ , G E C z z C R U d i j b x n A e - +             ",
"            @ , G E C z z C R U d i j x z D { _ 2 @             ",
"            @ , G E C z z C R Y d i j b D ( o. .6 o             ",
"            @ , G E C z z N E U d i h D { X.+. .6 @             ",
"            @ , G E C z z M I L a i S ( X.+...) 2 @             ",
"            + , G E C x x l g a u Z [ X.+...~ e - @             ",
"            + , F E C z x l f i Z ~ ..+.X.} ! e - +             ",
"            + , F W C z x z j S [ ..+.X./ ^ } ` 2 +             ",
"            + : r H B M b b D ( X.+.X.} ^ ! | ' 5 +             ",
"                = 1 H I M D { X.+.X./ ^ } | 7 4                 ",
"                X = r K D ( X.+...} ^ ! | ' 4 X                 ",
"                    : 3 ] o.+...~ ! } | 7 4                     ",
"                    X 4 '  . .) e e ` ' 4 X                     ",
"                        5 6 6 2 - - 2 5                         ",
"                        o o o o o o o o                         "
};
