/* XPM */
static char *coin31700989756[] = {
/* columns rows colors chars-per-pixel */
"32 32 46 1 ",
"  c None",
". c #0E060E",
"X c #11060E",
"o c #11090E",
"O c #120A0E",
"+ c #3D250B",
"@ c #3E250B",
"# c #3E260B",
"$ c #3F260B",
"% c #40270B",
"& c #42290B",
"* c #4A2E0B",
"= c #653D08",
"- c #47400B",
"; c #4A430B",
": c #4C400B",
"> c #4E480B",
", c #786608",
"< c #835106",
"1 c #9C5F04",
"2 c #A06303",
"3 c #AC6E02",
"4 c #BE7502",
"5 c #CC7F01",
"6 c #A3A006",
"7 c #BEAE03",
"8 c #D08100",
"9 c #D88500",
"0 c #DC8900",
"q c #DC9F00",
"w c #E28C00",
"e c #F19500",
"r c #F49600",
"t c #FC9D00",
"y c #CEB902",
"u c #E7A600",
"i c #F1BE00",
"p c #FFB900",
"a c #C5C404",
"s c #C8C703",
"d c #CAC803",
"f c #CBCA03",
"g c #D6C402",
"h c #FCD600",
"j c #FFEE00",
"k c #FFFB00",
/* pixels */
"              .oo.              ",
"              ;>>;              ",
"            X;6dd6;X            ",
"            o>skk7:o            ",
"            o>sji3*o            ",
"            .>ajq1#.            ",
"            .>ajq1#.            ",
"            -,ghu3=#            ",
"          X;6giptw4<#o          ",
"          o>sjptre02&o          ",
"          o>sjprw992&o          ",
"          o>ajpe9882&o          ",
"          o>ajpe9581&o          ",
"          o>ajpr9582&o          ",
"          o>ajpr9882&o          ",
"          o>ajpr9882&o          ",
"          o>ajpr9581&o          ",
"          o>ajpr9582&X          ",
"          o>ajpr8882&X          ",
"          o>ajpr9882*O          ",
"          o>ajpr9852&X          ",
"          o>sjpw9851&X          ",
"          o>dju88881&X          ",
"          X;6yq9843,&X          ",
"            -,5e03=#            ",
"            .*5tw1#.            ",
"            .*5tw1%X            ",
"            o*4rw2&o            ",
"            o&3w02&o            ",
"            o#<22<%o            ",
"              #&&#              ",
"              oooo              "
};
