/* XPM */
static char *coin21700989756[] = {
/* columns rows colors chars-per-pixel */
"32 32 91 1 ",
"  c None",
". c #0E050B",
"X c #110707",
"o c #10070B",
"O c #11080A",
"+ c #11090D",
"@ c #110A0D",
"# c #392209",
"$ c #3C240B",
"% c #3E250A",
"& c #3F260B",
"* c #42280B",
"= c #663F08",
"- c #453D3D",
"; c #473F3F",
": c #46400B",
"> c #4E480A",
", c #4E4717",
"< c #746408",
"1 c #4E483A",
"2 c #705638",
"3 c #494141",
"4 c #484147",
"5 c #4D4648",
"6 c #79716F",
"7 c #804F05",
"8 c #825006",
"9 c #9D6204",
"0 c #A06303",
"q c #B57002",
"w c #B97809",
"e c #9F9F06",
"r c #A09E06",
"t c #CF8D00",
"y c #D78400",
"u c #D78500",
"i c #DE8900",
"p c #D79D00",
"a c #E18C00",
"s c #E99100",
"d c #F29500",
"f c #F69900",
"g c #F79B00",
"h c #FF9B00",
"j c #FC9D00",
"k c #FF9E00",
"l c #E5A000",
"z c #FFA000",
"x c #FFA404",
"c c #FEAF00",
"v c #FFB603",
"b c #F5BE01",
"n c #FFBA00",
"m c #EBA32F",
"M c #FFB22E",
"N c #C5C403",
"B c #C8C703",
"V c #D5C202",
"C c #E5C000",
"Z c #FFCA00",
"A c #F6D200",
"S c #FFDA03",
"D c #F3E200",
"F c #F5EB00",
"G c #FFED00",
"H c #FFF103",
"J c #FEFD00",
"K c #C6C42E",
"L c #FFC52E",
"P c #FFF72F",
"I c #F3B95A",
"U c #FFC057",
"Y c #FFC35F",
"T c #FFFF5F",
"R c #FFCB65",
"E c #FFFC64",
"W c #A09C9C",
"Q c #A2A0A8",
"! c #D3BEA0",
"~ c #C6C599",
"^ c #FFDA9B",
"/ c #FFEF99",
"( c #D8C3A9",
") c #FFDBA7",
"_ c #FFF2A7",
"` c #FFF7A9",
"' c #C7C6CB",
"] c #D6D6D9",
"[ c #FFF5D9",
"{ c #F5F8FE",
"} c #FFFFFE",
/* pixels */
"            OXXX++XO            ",
"            ;551,,14            ",
"          .;W''~KK~Q4o          ",
"          ;6]}[_TT`!2$          ",
"        .3W]{[RY_`Rmw<&o        ",
"        o5'}[^UY)^Mgi0&o        ",
"        o5'[RU))YMxgi0%o        ",
"        46!^UY_/Lcxgiq=$        ",
"      .4Q(IU)_EPHSckgaq8*.      ",
"      o1~`RY)/PJFAckkga9*o      ",
"      o,KT_)YLHFbpgzkgi9*+      ",
"      +,KT`^LZHDpudzkgi9*+      ",
"      +1~_RLSHJDpuszkgi9*+      ",
"      +1~/McSHJDpudzkgi9*+      ",
"      +,KPvzcZHDpudzzgi9*+      ",
"      +>NGnhhvGDpudzkgi9*+      ",
"      +>NGnhhvGDpudzkgi9&+      ",
"      +>NGnhhnGDpudzkgi9*+      ",
"      +>NGnhhnGDpudzzgi9*+      ",
"      +>NGnhhnGDpudzkgi9*+      ",
"      +>NGnhhnGDpydzzgi9*+      ",
"      +>NGnhhcACpydzkgi9*+      ",
"      +>NGnkzglttydkkgi9*+      ",
"      O>NHnhzgauuagkzgi9*+      ",
"      +>BHbfhkdddghhzga0*o      ",
"      .:eVZvxkzzkkkhkaq7&.      ",
"        ><VSvzzxzzhhsq=#        ",
"        @*eVsggdggfaq<#.        ",
"          :<waiiiiaq=#          ",
"          .&80099998&.          ",
"            &******&            ",
"            O@@@+++o            "
};
