/* XPM */
static char *coin51700989756[] = {
/* columns rows colors chars-per-pixel */
"32 32 124 2 ",
"   c None",
".  c #0B030B",
"X  c #0F060E",
"o  c #10070D",
"O  c #11070E",
"+  c #10080C",
"@  c #120B0E",
"#  c #3B240B",
"$  c #3D2408",
"%  c #3C240A",
"&  c #412606",
"*  c #42280A",
"=  c #453D03",
"-  c #443E0B",
";  c #452E16",
":  c #452F17",
">  c #494209",
",  c #48410B",
"<  c #4B450B",
"1  c #4E480B",
"2  c #4D4718",
"3  c #684007",
"4  c #795D08",
"5  c #796F08",
"6  c #4B423A",
"7  c #79713E",
"8  c #464045",
"9  c #705A41",
"0  c #804E04",
"q  c #825005",
"w  c #9D6103",
"e  c #9F6206",
"r  c #A06303",
"t  c #B57002",
"y  c #B57102",
"u  c #B87100",
"i  c #BA7810",
"p  c #A7782D",
"a  c #A09E04",
"s  c #A1A006",
"d  c #D38302",
"f  c #D68200",
"g  c #D68A05",
"h  c #DD8902",
"j  c #E08A00",
"k  c #E18D00",
"l  c #EA9100",
"z  c #F59500",
"x  c #F69A01",
"c  c #FB9C00",
"v  c #FF9C00",
"b  c #FF9D00",
"n  c #FF9F00",
"m  c #FFA000",
"M  c #FFA400",
"N  c #F5AB00",
"B  c #FFA30A",
"V  c #F9A00C",
"C  c #FFB000",
"Z  c #FFB300",
"A  c #FFB700",
"S  c #F5BE01",
"D  c #FFBA00",
"F  c #FFBB00",
"G  c #FFB509",
"H  c #D9972B",
"J  c #E6A02C",
"K  c #F3A82B",
"L  c #FCAB29",
"P  c #FFAE29",
"I  c #FFB12D",
"U  c #F5BC2D",
"Y  c #C7C603",
"T  c #C5C404",
"R  c #C8C803",
"E  c #D7C502",
"W  c #D5C107",
"Q  c #FFC500",
"!  c #FFD500",
"~  c #FCD700",
"^  c #FFD900",
"/  c #FFDF00",
"(  c #FFEA00",
")  c #FFEE00",
"_  c #FFF101",
"`  c #C7C731",
"'  c #D6D63E",
"]  c #FFC829",
"[  c #FFF229",
"{  c #B88A42",
"}  c #E2AE59",
"|  c #FCBD56",
" . c #E4B466",
".. c #E5B970",
"X. c #FFC056",
"o. c #FFC45C",
"O. c #FFC564",
"+. c #FFC668",
"@. c #FFCA71",
"#. c #FFFF68",
"$. c #BEAC93",
"%. c #BCAE9B",
"&. c #9F9DA3",
"*. c #A2A0A3",
"=. c #D3BF99",
"-. c #C6C79B",
";. c #F3CE90",
":. c #FED490",
">. c #F6D59D",
",. c #FFD99A",
"<. c #FFF099",
"1. c #FFDCA2",
"2. c #F7D9A9",
"3. c #FCDCA8",
"4. c #FFDFA9",
"5. c #DDD8CC",
"6. c #F5F7C8",
"7. c #F6EBD9",
"8. c #FFF0D6",
"9. c #FFF1DA",
"0. c #FFF2DB",
"q. c #FFF7DF",
"w. c #FFFFDA",
"e. c white",
/* pixels */
"                        O O + O O O O O                         ",
"                        , 1 1 1 1 1 1 ,                         ",
"                X + + > s R T T T T R s , O                     ",
"                > < < 5 E _ _ _ ) _ _ W 4 #                     ",
"            . - a T T W S D D D D F D N g e # X                 ",
"            - 5 E _ _ ^ C v v v b b b b M d 3 #                 ",
"        . - a E S D D Z M v v v b v v M M l y q # .             ",
"        - 5 E / Z v v b v M Z A M M b b v x J { 9 8             ",
"    X > a E S Z M b b b v C ^ ^ A b b b b P :.5.5.*.8 .         ",
"    o 1 R _ D b b b b M C Q / ! N z c B P @.9.e.0.$.6 o         ",
"    + 1 T _ D v b b v C ^ / Q N k j z P :.9.e.7...p : o         ",
"    o 1 T ) D v b M C Q / ^ Z z f g K @.9.e.9.>.} p : o         ",
"    O 1 T ) D v v Z ^ / Q C M z f H ;.0.e.8.O.X.1.%.6 +         ",
"    O 1 T ) D v v Z ^ / Q C b x J ..7.e.9.,.X.o.3.%.6 +         ",
"    o 1 T ) D b b M C Q / ! C L ;.7.e.8.O.X.1.2. .p : +         ",
"    o 1 T ) D b b b v A ( _ ] @.9.e.8.,.X.o.3.>.H e & +         ",
"    o 1 T ) D b b b v A ( [ <.9.e.8.+.| 1.4.O.K h e * +         ",
"    O 1 T ) D b b b v G [ #.w.e.7.>.| o.4.,.I z h w * +         ",
"    o 1 T ) D b b b b I <.w.e.7. .} >.3.O.I B z h w * +         ",
"    o 1 T ) D v v B P @.9.e.8.>.} } 2.,.I b b x h w * +         ",
"    O 1 T ) D v v P :.9.e.8.+.| >.2.O.I B b b x h w * +         ",
"    + 1 Y _ D B P @.9.e.8.,.X.o.4.,.I v b b b x j r * o         ",
"    o 1 R _ A P :.9.e.8.+.X.1.3.O.I B b b b M x k r * o         ",
"    O > a W U @.9.e.8.,.X.o.4.,.I b b M M b c k y 0 % X         ",
"        = 7 =.q.e.8.O.X.1.4.O.I B b b b b c l y 3 %             ",
"        . 8 &.5.6.<.o.o.4.,.I b b b M b c k y 0 % X             ",
"            8 7 ' #.<.3.O.I B b b M M c l y 3 %                 ",
"            . = s ` -.=.J z x x x x x k y 0 % X                 ",
"                > 2 6 9 i j j h h j k y 3 %                     ",
"                o o o % q r r w w r r 0 # X                     ",
"                        % * * * * * * %                         ",
"                        O @ @ @ @ @ @ o                         "
};
