/* XPM */
static char *player21701432895[] = {
/* columns rows colors chars-per-pixel */
"32 32 13 1 ",
"  c #655F51",
". c #AEA798",
"X c #8E8A7A",
"o c #796D5C",
"O c black",
"+ c #E68383",
"@ c gray83",
"# c white",
"$ c #FF2B00",
"% c #EDC5C5",
"& c gray19",
"* c gray33",
"= c #279AC4",
/* pixels */
"                                ",
"  ....................XX   .... ",
"  ....................XX   .... ",
" .XXXXXXXXXXXXXXXXXXXXXX ..XXXXo",
" .XXXXXXXXOOOOOOOOOOOO  .XXXXXXo",
" .XXXXXXXXOOOOOOOOOOOO  .XXXXXXo",
" .XXXXXXOO++@@####$$$$OO.XXXXXXo",
" .XXXXXXOO++@@####$$$$OOXXXXXXXo",
" .XXXXOO@@%%####$$&&&&$$OOXXXXXo",
" .XXXXOO@@%%####$$&&&&$$OOXXXXXo",
" .XXOO++%%####$$&&**&&&&$$OOXXXo",
" .XXOO++%%####$$&&**&&&&$$OOXXXo",
" .XX==##@@%%====&&**&&&&==##XXXo",
" .XX==##@@%%====&&**&&&&==##XXXo",
" .XX====@@##====&&&&&&&&====XXXo",
" .XX====@@##====&&&&&&&&====XXXo",
" .XXOO@@%%####$$&&**&&&&$$OOXXXo",
" .XXOO@@%%####$$&&**&&&&$$OOXXXo",
" .XXOO++%%####$$&&&&&&&&$$OOXXXo",
" .XXOO++%%####$$&&&&&&&&$$OOXXXo",
" .XXXXOO@@@@####$$&&&&$$OOXXXXXo",
" .XXXoOO@@@@####$$&&&&$$OOXXXXXo",
" .XXo   OO++@@####$$$$OOXXXXXXXo",
" .XXo  .OO++@@####$$$$OOXXXXXXXo",
" .XXXo   .OOOOOOOOOOOOXXXXXXXXXo",
" .XXXoo  .OOOOOOOOOOOOXXXXXXXXXo",
" .XXXXo   .XXXXXXXXXXXXXXXXXXXXo",
" .XXXXX   .XXXXXXXXXXXXXXXXXXXXo",
" .XXXXX   ..XXXXXXXXXXXXXXXXXXo ",
" oooooooo  ..oooooooooooooooooo ",
" oooooooo  ..oooooooooooooooooo ",
"                                "
};
