/* XPM */
static char *player31701432895[] = {
/* columns rows colors chars-per-pixel */
"32 32 13 1 ",
"  c #655F51",
". c #AEA798",
"X c #8E8A7A",
"o c black",
"O c #796D5C",
"+ c #E68383",
"@ c gray83",
"# c white",
"$ c #FF2B00",
"% c #EDC5C5",
"& c gray19",
"* c gray33",
"= c #279AC4",
/* pixels */
"                                ",
"  ....................XX   .... ",
"  ....................XX   .... ",
" .XXXXXXXXooooooooooooXX ..XXXXO",
" .XXXXXXXXoooooooooooo  .XXXXXXO",
" .XXXXXXoo++@@####$$$$oo.XXXXXXO",
" .XXXXXXoo++@@####$$$$oo.XXXXXXO",
" .XXXXoo@@%%####$$&&&&$$ooXXXXXO",
" .XXXXoo@@%%####$$&&&&$$ooXXXXXO",
" .XXoo++%%####$$&&**&&&&$$ooXXXO",
" .XXoo++%%####$$&&**&&&&$$ooXXXO",
" .XXoo@@@@%%##$$&&**&&&&$$ooXXXO",
" .XXoo@@@@%%##$$&&**&&&&$$ooXXXO",
" .XXoo@@@@##==$$&&&&&&&&$$ooXXXO",
" .XXoo@@@@##==$$&&&&&&&&$$ooXXXO",
" .XXoo@@%%####==&&**&&&&$$ooXXXO",
" .XXoo@@%%####==&&**&&&&$$ooXXXO",
" .XX====%%####==&&&&&&&&====XXXO",
" .XX====%%####==&&&&&&&&====XXXO",
" .XXXX======##====&&&&====XXXXXO",
" .XXXX======##====&&&&====XXXXXO",
" .XXXO  ====@@====$$$$====XXXXXO",
" .XXO   ====@@====$$$$====XXXXXO",
" .XXO  ...ooooooooooooXXXXXXXXXO",
" .XXXO   .ooooooooooooXXXXXXXXXO",
" .XXXOO  .XXXXXXXXXXXXXXXXXXXXXO",
" .XXXXO   .XXXXXXXXXXXXXXXXXXXXO",
" .XXXXX   .XXXXXXXXXXXXXXXXXXXXO",
" .XXXXX   ..XXXXXXXXXXXXXXXXXXO ",
" OOOOOOOO  ..OOOOOOOOOOOOOOOOOO ",
" OOOOOOOO  ..OOOOOOOOOOOOOOOOOO ",
"                                "
};
